<?xml version="1.0" encoding="UTF-8"?>
<!DOCTYPE svg PUBLIC "-//W3C//DTD SVG 1.1//EN" "http://www.w3.org/Graphics/SVG/1.1/DTD/svg11.dtd">
<svg version="1.1" xmlns="http://www.w3.org/2000/svg" xmlns:xlink="http://www.w3.org/1999/xlink" x="0" y="0" width="544" height="702" viewBox="0, 0, 544, 702">
  <defs>
    <clipPath id="Clip_1">
      <path d="M0.06,0.514 L543.587,0.514 L543.587,701.94 L0.06,701.94 z"/>
    </clipPath>
  </defs>
  <g id="Layer_1">
    <g clip-path="url(#Clip_1)">
      <path d="M108.672,590.065 C106.617,590.065 105.033,590.065 103.45,590.065 C72.622,590.065 41.795,590.072 10.967,590.047 C9.151,590.045 7.262,590.051 5.533,589.587 C1.376,588.472 -0.456,585.527 0.096,581.304 C0.626,577.249 3.127,575.128 7.206,575.088 C13.704,575.024 20.203,575.068 26.702,575.068 C53.197,575.067 79.692,575.045 106.187,575.102 C108.921,575.107 110.673,574.994 111.173,571.427 C116.683,532.189 128.384,494.643 142.704,457.841 C149.937,439.254 157.923,420.994 167.008,403.23 C168.144,401.008 168.498,399.732 165.724,398.275 C131.355,380.225 108.776,352.101 95.724,315.893 C95.014,313.923 95.075,311.365 91.462,311.666 C71.663,313.313 56.074,301.749 55.768,275.91 C55.634,264.528 57.123,253.517 67.473,245.673 C53.893,234.924 48.482,220.222 47.497,203.747 C46.525,187.479 49.569,171.945 58.464,157.901 C54.324,155.922 50.157,154.283 46.343,152.044 C29.065,141.901 24.102,124.143 33.737,106.588 C40.647,94 51.052,84.729 63.177,77.364 C77.963,68.383 93.96,62.409 110.972,59.348 C115.711,58.496 119.565,56.624 123.333,53.645 C151.599,31.292 182.891,14.708 218.075,6.392 C260.601,-3.659 302.718,-0.32 344.155,12.598 C379.812,23.715 411.632,41.791 438.102,68.275 C471.64,101.833 489.592,142.44 490.611,190.172 C490.643,191.671 490.538,193.177 490.646,194.67 C490.79,196.656 491.08,198.631 491.309,200.636 C506.655,191.609 516.145,201.045 515.418,215.77 C517.494,215.212 519.512,214.5 521.591,214.139 C530.408,212.606 536.216,217.429 536.365,226.368 C536.393,228.023 536.561,229.858 535.948,231.307 C534.063,235.767 533.156,238.908 539.474,241.027 C543.917,242.518 544.784,250.852 541.961,257.275 C537.079,268.385 528.92,276.872 519.49,284.221 C516.739,286.365 513.97,288.687 510.837,290.097 C504.012,293.167 500.092,298.451 496.412,304.795 C463.89,360.854 428.489,414.987 387.272,465.133 C380.297,473.62 372.913,481.772 365.643,490.012 C364.27,491.569 363.451,492.858 363.782,495.218 C367.359,520.759 370.825,546.317 374.109,571.897 C374.627,575.932 377.178,575.05 379.504,575.051 C424.996,575.074 470.487,575.068 515.979,575.068 C517.312,575.068 518.647,575.021 519.978,575.084 C524.191,575.283 526.41,577.92 526.821,581.719 C527.212,585.332 525.459,588.123 521.822,589.446 C519.558,590.27 517.22,590.059 514.898,590.06 C405.419,590.066 295.939,590.065 186.46,590.065 C185.127,590.065 183.789,590.138 182.462,590.053 C179.055,589.835 179.06,592.337 179.372,594.408 C179.778,597.099 189.817,604.178 192.655,604.05 C212.843,603.136 233.054,603.576 252.851,607.485 C264.637,609.812 275.607,606.928 286.889,605.724 C326.862,601.458 366.296,604.052 405.161,614.511 C408.055,615.29 409.956,617.006 411.44,619.696 C424.525,643.411 437.725,667.063 450.922,690.716 C452.561,693.653 453.491,696.63 451.239,699.547 C448.988,702.462 446,702.231 442.65,701.433 C411.62,694.049 380.141,690.274 348.246,689.702 C320.864,689.212 293.739,691.292 266.893,696.817 C261.832,697.859 257.029,695.804 252.151,695.046 C204.968,687.713 157.925,689.567 110.961,696.972 C102.424,698.318 93.928,699.957 85.46,701.69 C82.409,702.314 79.782,702.158 77.758,699.692 C75.557,697.012 76.033,694.183 77.627,691.325 C86.609,675.214 95.579,659.097 104.478,642.941 C105.41,641.249 107.272,639.843 105.444,637.196 C103.627,634.566 101.908,635.731 99.867,636.119 C93.237,637.38 87.685,635.081 84.315,629.717 C80.845,624.196 81.956,618.834 85.328,613.813 C91.484,604.648 100.15,597.901 108.672,590.065" fill="#6E4100"/>
    </g>
    <path d="M99.339,275.281 C92.225,218.03 106.01,166.762 143.594,122.534 C153.796,110.527 166.398,101.19 180.012,93.249 C183.005,91.503 184.486,90.339 185.455,95.483 C190.771,123.713 202.259,149.028 223.016,169.423 C231.128,177.393 240.496,183.278 252.627,182.52 C263.274,181.855 270.308,175.617 275.905,167.28 C279.729,161.586 282.363,155.324 284.266,147.672 C288.28,152.941 292.162,157.307 296.375,161.359 C307.167,171.742 319.211,180.273 333.435,185.199 C353.45,192.131 367.981,184.015 372.673,163.418 C380.316,170.553 388.339,176.919 397.705,181.443 C404.691,184.817 411.932,187.109 419.726,187.046 C422.258,187.026 423.227,188.057 423.782,190.259 C424.757,194.127 425.936,197.943 426.918,201.809 C427.195,202.903 427.56,204.374 427.078,205.2 C420.81,215.919 422.99,227.066 425.265,238.201 C426.296,243.245 427.296,248.335 428.899,253.21 C430.286,257.428 429.699,260.923 427.042,264.268 C424.427,264.681 423.247,262.526 421.675,261.176 C408.874,250.182 388.646,248.238 376.751,257.6 C366.302,265.823 359.027,276.418 361.852,290.4 C364.748,304.737 371.858,316.517 387.012,321.364 C388.705,321.905 391.218,321.651 391.371,324.484 C375.293,349.022 357.132,371.978 338.311,394.437 C337.037,395.958 335.407,396.608 333.673,397.139 C302.198,406.772 270.081,409.104 237.44,405.629 C212.549,402.978 188.715,396.847 166.922,384.141 C140.498,368.734 122.173,346.333 110.601,318.205 C110.356,317.608 110.329,316.921 110.2,316.276 C111.613,315.622 112.806,316.307 113.948,316.973 C122.547,321.983 131.969,322.768 141.515,321.761 C151.101,320.75 156.928,313.857 162.489,306.891 C179.165,286.001 159.14,253.657 138.815,251.837 C125.707,250.663 115.522,255.838 107.46,265.818 C105.789,267.887 104.47,270.221 103.018,272.453 C102.14,273.802 101.467,275.517 99.339,275.281" fill="#FEF8EA"/>
    <path d="M116.206,72.261 C119.915,70.598 123.942,70.163 127.858,69.352 C130.032,68.902 131.956,67.939 132.309,65.896 C133.072,61.476 136.6,59.775 139.645,57.597 C166.608,38.306 195.808,23.602 228.549,17.458 C268.098,10.037 307.042,13.761 345.108,26.694 C379.273,38.302 409.448,56.441 434.068,82.956 C457.577,108.275 471.915,138.198 476.296,172.666 C476.484,174.149 476.779,175.618 477.027,177.093 C477.581,180.383 476.83,182.089 473.148,183.653 C464.671,187.253 460.141,195.241 455.168,202.52 C453.495,204.969 452.027,207.559 450.647,209.791 C440.836,204.459 438.191,195.084 435.94,185.392 C435.514,183.563 436.508,183.142 437.418,182.231 C439.925,179.723 440.711,176.753 438.704,173.661 C436.554,170.348 433.334,169.752 429.962,171.525 C421.964,175.731 414.022,174.55 406.43,170.948 C388.101,162.252 373.639,149.537 365.974,130.18 C364.382,126.161 361.502,124.39 357.303,125.485 C353.559,126.461 351.925,130.329 353.638,134.985 C356.577,142.974 359.44,150.895 359.292,159.607 C359.093,171.239 352.244,176.725 340.902,173.731 C327.677,170.241 316.937,162.353 306.959,153.421 C299.204,146.478 292.836,138.394 288.764,128.669 C287.206,124.947 286.21,121.147 286.057,117.09 C285.845,111.454 283.704,109.059 279.287,109.194 C274.971,109.325 273.058,111.825 273.059,117.566 C273.06,127.048 273.35,136.545 271.172,145.879 C269.632,152.479 266.707,158.425 262.311,163.554 C256.795,169.992 250.172,171.344 242.608,167.463 C230.423,161.209 222.496,150.702 215.803,139.274 C204.208,119.475 196.18,98.53 197.067,75.045 C197.233,70.649 195.629,67.1 191.026,66.801 C186.551,66.511 183.955,69.362 184.084,74.038 C184.149,76.411 182.534,77.111 180.882,77.951 C146.177,95.598 121.251,122.631 104.692,157.607 C94.574,178.98 88.823,201.644 85.287,224.934 C84.718,228.683 85.968,232.594 84.245,236.231 C79.543,223.561 73.695,211.053 74.07,197.219 C74.467,182.565 76.283,168.052 86.262,155.998 C83.703,152.981 81.518,156.018 79.242,156.229 C79.047,148.371 78.487,147.808 70.469,147.113 C69.697,147.046 68.955,146.625 68.2,146.368 C56.893,135.45 55.391,121.453 63.918,107.462 C74.769,89.656 90.968,79.211 110.541,73.357 C112.442,73.064 114.284,72.456 116.206,72.261" fill="#C9A76F"/>
    <path d="M272.088,575.087 C244.261,575.087 216.435,575.089 188.608,575.085 C182.645,575.085 182.711,575.088 183.742,569.477 C189.305,539.214 195.395,509.056 201.813,478.964 C202.749,474.576 200.899,471.114 197.314,470.259 C193.302,469.302 190.14,471.415 189.117,476.102 C181.886,509.245 175.441,542.545 169.192,575.885 C168.518,579.48 167.618,583.057 167.29,586.685 C167.005,589.833 165.549,590.376 162.723,590.293 C150.743,589.942 138.754,589.589 126.772,589.709 C122.352,589.754 122.01,588.12 122.438,584.424 C127.195,543.305 138.977,504.046 153.717,465.568 C161.1,446.294 169.408,427.419 178.642,408.95 C179.987,406.26 181.164,405.369 184.207,406.633 C188.799,408.541 193.561,410.171 198.393,411.325 C202.407,412.284 203.478,413.735 202.738,418.083 C200.962,428.517 202.594,438.354 210.69,446.159 C211.525,446.964 212.366,447.96 213.398,448.331 C220.167,450.763 222.845,456.704 225.96,462.4 C236.581,481.819 247.324,501.172 258.003,520.56 C259.627,523.509 261.05,526.462 265.239,526.422 C269.385,526.382 270.831,523.528 272.439,520.513 C284.027,498.784 295.657,477.076 307.315,455.383 C308.23,453.681 308.901,451.867 310.984,450.876 C323.447,444.949 327.685,432.088 325.755,418.31 C325.087,413.542 327.857,409.923 332.023,411.693 C338.613,414.493 341.623,410.709 345.017,406.729 C379.461,366.332 410.845,323.792 435.604,276.665 C437.512,273.034 439.008,272.847 442.316,274.655 C455.457,281.838 468.684,288.871 481.999,295.726 C484.974,297.258 485.267,298.422 483.589,301.258 C449.541,358.799 412.962,414.583 369.724,465.754 C364.675,471.729 359.392,477.523 353.945,483.137 C350.9,486.275 349.68,489.532 350.304,493.901 C353.928,519.258 357.35,544.644 360.96,570.003 C361.491,573.731 360.888,575.219 356.568,575.188 C328.409,574.99 300.248,575.087 272.088,575.087" fill="#579CD7"/>
    <path d="M431.927,685.389 C424.857,684.251 417.86,683.069 410.845,682.005 C363.259,674.79 315.729,674.233 268.273,683.206 C260.374,684.699 252.825,681.827 245.157,680.842 C215.31,677.006 185.418,676.559 155.448,678.689 C135.693,680.094 116.065,682.539 96.408,686.109 C95.857,684.511 96.982,683.544 97.539,682.535 C104.85,669.286 112.206,656.062 119.586,642.85 C122.578,637.493 124.496,637.191 129.047,641.216 C134.02,645.614 140.234,646.104 146.635,642.579 C152.289,639.465 156.6,634.765 160.733,630.001 C163.39,626.94 165.507,625.908 169.201,628.465 C173.235,631.256 178.017,632.271 182.984,632.061 C190.569,631.741 195.454,627.368 196.036,619.773 C196.209,617.528 196.982,616.793 198.855,616.798 C219.323,616.856 239.788,617.068 259.794,622.197 C262.197,622.813 264.405,622.608 266.679,622.169 C309.319,613.945 351.715,615.133 393.958,625.091 C398.556,626.175 401.333,628.2 403.582,632.399 C412.138,648.374 421.138,664.111 429.914,679.97 C430.767,681.511 432.17,682.895 431.927,685.389" fill="#FEFEFE"/>
    <path d="M99.339,275.281 C103.407,270.72 105.754,264.959 110.236,260.603 C127.43,243.892 153.095,247.97 164.249,269.252 C169.008,278.333 172.917,287.854 168.665,297.771 C159.425,319.32 145.543,327.601 122.359,321.831 C117.958,320.735 114.025,318.626 110.2,316.276 C104.296,303.216 101.337,289.376 99.339,275.281" fill="#FFD9B4"/>
    <path d="M501.951,209.829 C502.807,217.792 499.417,223.948 497.719,230.448 C496.215,236.205 499.759,240.412 505.254,239.363 C507.046,239.021 508.087,237.792 509.285,236.632 C513.234,232.809 517.481,229.397 522.973,227.175 C523.352,230.298 521.719,232.466 520.502,234.725 C517.487,240.325 513.315,245.117 509.58,250.215 C507.252,253.393 506.689,256.774 509.703,259.686 C512.698,262.579 515.935,261.867 519.158,259.532 C521.835,257.592 524.777,256.018 527.627,254.266 C528.819,256.131 527.264,257.16 526.502,258.265 C519.439,268.495 509.546,275.346 499.32,282.114 C493.219,286.153 488.942,285.103 483.282,281.828 C471.637,275.089 459.555,269.105 447.68,262.762 C446.286,262.017 444.53,261.699 444.028,259.709 C440.699,246.513 436.319,233.526 436.167,219.711 C436.155,218.626 435.869,217.381 437.168,216.195 C440.579,219.631 441.762,224.101 442.876,228.427 C443.828,232.126 445.531,234.614 449.455,234.674 C453.388,234.734 454.924,232.149 456.24,228.63 C460.759,216.545 467.857,206.02 476.609,196.105 C478.946,199.801 478.134,203.126 477.721,206.346 C477.129,210.96 475.964,215.498 476.123,220.208 C476.238,223.592 477.718,226.023 480.973,226.986 C484.033,227.891 486.457,226.628 488.357,224.144 C492.175,219.151 495.819,213.982 501.951,209.829" fill="#FEF8EA"/>
    <path d="M391.371,324.484 C387.614,322.055 382.933,322.025 379.154,319.398 C365.788,310.108 358.636,297.26 360.447,281.277 C361.997,267.596 370.649,257.151 383.559,252.376 C397.85,247.09 411.225,251.25 422.979,260.632 C424.397,261.764 425.691,263.052 427.042,264.267 C416.923,285.389 404.761,305.301 391.371,324.484" fill="#FFD9B4"/>
    <path d="M265.149,506.354 C255.516,488.902 246.344,472.285 236.871,455.123 C249.625,454.12 258.811,448.045 265.206,436.897 C272.335,445.991 280.176,453.377 292.741,454.716 C283.553,471.911 274.569,488.725 265.149,506.354" fill="#FEFEFE"/>
    <path d="M79.242,156.229 C81.402,148.636 85.975,155.538 88.707,154.424 C72.678,177.638 71.522,202.095 82.99,227.507 C84.338,230.492 83.708,233.353 84.245,236.232 C80.119,238.41 76.889,236.076 73.979,233.788 C66.524,227.924 63.182,219.601 61.475,210.647 C59.057,197.964 60.309,185.515 65.1,173.491 C67.471,167.538 70.505,162.084 76.711,159.184 C77.912,158.622 78.769,157.533 79.242,156.229" fill="#FEFEFE"/>
    <path d="M116.097,627.578 C117.146,625.788 117.531,624.896 118.119,624.167 C120.831,620.81 121.173,617.296 117.777,614.476 C114.447,611.712 111.009,612.729 107.985,615.595 C105.334,618.107 102.673,620.634 99.384,622.34 C98.225,622.941 97.086,623.817 95.4,622.658 C100.053,614.366 107.619,608.845 114.496,602.712 C115.177,602.104 116.734,602.389 117.882,602.409 C132.673,602.668 147.474,603.398 162.249,603.042 C169.54,602.867 173.468,607.047 177.701,611.431 C179.627,613.426 181.478,615.584 182.559,618.806 C176.993,619.139 173.305,615.821 169.323,613.533 C163.601,610.245 161.805,610.309 157.146,614.838 C152.144,619.702 147.993,625.416 142.4,629.68 C141.179,630.611 139.725,632.514 138.217,631.201 C136.733,629.908 138.164,628.086 139.078,626.783 C141.529,623.29 141.845,619.793 138.353,617.075 C134.637,614.183 131.26,615.692 128.311,618.893 C125.159,622.315 121.752,625.456 116.097,627.578" fill="#FEF8EA"/>
    <path d="M110.945,74.062 C92.891,80.152 77.191,89.575 66.421,105.837 C58.127,118.363 56.206,133.165 68.275,144.819 C68.825,145.351 68.995,145.89 68.199,146.368 C62.296,145.18 56.651,143.301 51.615,139.911 C41.713,133.246 39.354,124.202 44.846,113.587 C49.46,104.67 56.485,97.87 64.585,92.189 C78.058,82.741 92.92,76.436 109.074,73.22 C110.025,72.774 110.973,72.333 110.945,74.062" fill="#FEFEFE"/>
    <path d="M235.32,442.071 C220.704,441.836 212.792,432.695 215.514,419.343 C216.035,416.788 216.913,415.707 219.736,416.284 C231.156,418.618 242.769,419.317 254.368,420.08 C255.795,420.174 257.372,419.675 257.159,422.229 C256.344,432.034 245.214,442.23 235.32,442.071" fill="#FEFEFE"/>
    <path d="M271.397,420.273 C284.154,419.484 296.882,418.854 309.401,416.369 C311.65,415.923 312.152,416.93 312.609,418.85 C314.479,426.697 312.246,434.513 306.898,438.137 C299.69,443.022 290.939,442.885 284.13,437.781 C278.745,433.743 273.578,426.686 271.397,420.273" fill="#FEFEFE"/>
    <path d="M68.651,274.542 C69.079,270.364 69.03,266.662 70.293,263.168 C71.455,259.954 73.107,257.18 76.596,255.899 C82.12,253.871 84.2,255.007 84.611,260.709 C85.449,272.347 86.918,283.897 89.757,295.216 C90.596,298.564 89.298,298.869 86.632,298.758 C77.56,298.38 71.354,292.805 69.472,282.944 C68.913,280.017 68.877,276.99 68.651,274.542" fill="#FEF8EA"/>
    <path d="M110.945,74.062 C110.321,73.781 109.698,73.501 109.074,73.22 C111.363,72.239 113.645,71.21 116.206,72.262 C114.766,73.779 112.682,73.413 110.945,74.062" fill="#E1D8CB"/>
    <path d="M261.833,295.43 C272.312,295.43 282.79,295.359 293.268,295.452 C302.195,295.532 303.269,296.744 303.337,305.508 C303.444,319.529 301.001,332.972 294.172,345.362 C286.419,359.425 272.734,366.295 258.555,363.286 C249.885,361.446 243.806,355.929 239.128,348.742 C232.459,338.495 229.474,327.001 228.038,315.006 C227.605,311.382 228.282,307.464 224.07,305.063 C222.097,303.937 222.239,301.238 223.178,299.116 C224.263,296.665 226.407,296.068 228.934,296.079 C239.9,296.127 250.867,296.1 261.833,296.1 C261.833,295.877 261.833,295.653 261.833,295.43" fill="#6E4100"/>
    <path d="M355.201,237.035 C355.075,242.924 353.742,247.964 349.396,251.732 C344.828,255.692 338.48,256.706 333.613,253.95 C327.009,250.21 323.439,244.252 323.583,236.751 C323.716,229.879 326.64,223.857 331.887,219.227 C337.092,214.635 343.467,214.842 348.417,219.718 C353.339,224.566 354.946,230.734 355.201,237.035" fill="#6E4100"/>
    <path d="M206.344,237.161 C206.544,243.102 205.077,248.433 200.179,252.2 C190.492,259.649 176.776,252.983 175.177,239.943 C174.153,231.597 177.22,224.544 183.517,219.112 C189.128,214.272 195.782,214.973 200.661,220.601 C204.766,225.337 206.466,230.949 206.344,237.161" fill="#6E4100"/>
    <path d="M194.525,148.664 C185.763,146.224 177.423,142.068 171.096,134.583 C169.611,132.827 170.102,130.715 171.602,129.139 C173.319,127.336 175.838,127.066 177.47,128.656 C183.196,134.236 189.94,137.829 197.453,140.287 C199.591,140.986 200.36,143.02 199.851,145.18 C199.288,147.574 197.567,148.712 194.525,148.664" fill="#6F4300"/>
    <path d="M257.676,236.153 C257.97,233.266 259.764,231.582 262.845,231.478 C265.729,231.381 270.276,237.276 270.085,241.03 C269.918,244.304 268.025,246.277 264.628,246.206 C261.686,246.144 257.523,240.12 257.676,236.153" fill="#704401"/>
    <path d="M265.084,544.099 C270.041,544.164 273.979,548.04 274.01,552.884 C274.043,557.954 269.919,562.091 264.845,562.08 C259.857,562.069 255.873,557.793 256.035,552.623 C256.194,547.559 259.938,544.031 265.084,544.099" fill="#FDFDFE"/>
    <path d="M257.993,651.217 C257.993,645.564 257.937,639.91 258.009,634.258 C258.073,629.256 260.419,626.639 264.57,626.717 C268.492,626.79 270.942,629.416 270.972,634 C271.049,645.804 271.047,657.61 270.973,669.415 C270.944,673.976 268.472,676.647 264.58,676.727 C260.473,676.813 258.069,674.133 258.009,669.174 C257.938,663.189 257.993,657.203 257.993,651.217" fill="#6E4100"/>
    <path d="M265.998,306.412 C273.646,306.412 281.295,306.44 288.944,306.393 C290.97,306.38 292.497,306.489 292.345,309.232 C291.683,321.163 289.598,332.703 282.619,342.737 C272.812,356.835 257.336,356.506 248.09,342.079 C241.728,332.152 239.689,320.934 238.511,309.446 C238.163,306.047 240.742,306.979 242.083,306.949 C250.052,306.772 258.027,306.862 266,306.862 C265.999,306.712 265.998,306.562 265.998,306.412" fill="#FEFEFE"/>
  </g>
</svg>
